
<svg version="1.0" xmlns="http://www.w3.org/2000/svg"
 width="230.000000pt" height="47.000000pt" viewBox="0 0 3000.000000 624.000000"
 preserveAspectRatio="xMidYMid meet">

<g transform="translate(0.000000,624.000000) scale(0.100000,-0.100000)"
fill="#000000" stroke="none">
<path d="M1230 3120 l0 -2460 7070 0 7070 0 0 2460 0 2460 -7070 0 -7070 0 0
-2460z m4920 0 l0 -2260 -2360 0 -2360 0 0 2260 0 2260 2360 0 2360 0 0 -2260z
m5890 665 l0 -615 -220 0 -220 0 0 615 0 615 220 0 220 0 0 -615z m-4625 464
c114 -21 194 -79 237 -174 18 -41 22 -68 23 -150 0 -92 -3 -105 -31 -166 -31
-64 -73 -107 -138 -141 l-30 -16 40 -20 c116 -59 184 -190 184 -352 l0 -60
-245 0 -245 0 0 543 c0 299 2 546 5 549 8 7 131 -1 200 -13z m-325 -534 l0
-545 -220 0 -220 0 0 545 0 545 220 0 220 0 0 -545z m2683 25 c162 -142 299
-265 303 -271 13 -22 6 -137 -11 -173 -37 -77 -139 -136 -234 -136 -32 0 -53
15 -182 128 -359 314 -448 395 -453 416 -9 33 -7 97 4 138 21 72 91 129 183
148 91 17 75 28 390 -250z m-1413 -161 l0 -412 -95 5 c-84 5 -104 10 -169 42
-85 42 -127 85 -167 171 -36 75 -47 182 -30 280 36 208 174 321 394 324 l67 1
0 -411z m560 0 l0 -412 -112 5 c-135 7 -206 30 -260 85 -71 73 -73 82 -76 426
l-3 307 225 0 226 0 0 -411z m1180 392 c15 -29 12 -137 -5 -179 -17 -39 -52
-82 -68 -82 -8 0 -243 197 -312 262 -19 18 -14 18 177 18 185 0 198 -1 208
-19z m700 -391 l0 -410 -89 0 c-113 0 -201 26 -259 76 -89 76 -102 138 -102
486 l0 258 225 0 225 0 0 -410z m580 0 l0 -410 -225 0 -225 0 0 410 0 410 225
0 225 0 0 -410z m1330 -1 l0 -411 -87 4 c-163 9 -280 82 -338 210 -49 108 -47
291 5 402 62 131 186 204 353 205 l67 1 0 -411z m350 387 c97 -35 190 -134
221 -236 6 -19 13 -75 16 -124 9 -153 -28 -259 -120 -341 -63 -58 -140 -86
-249 -93 l-88 -5 0 413 0 413 88 -6 c48 -3 107 -12 132 -21z m677 -1 c105 -32
171 -108 193 -224 5 -29 10 -171 10 -314 l0 -259 -87 4 c-144 7 -236 65 -298
187 -49 98 -57 150 -62 400 l-5 234 98 -6 c55 -3 122 -13 151 -22z m780 -202
c-6 -239 -16 -313 -58 -396 -63 -124 -162 -188 -305 -195 l-84 -5 0 266 c0
326 10 387 79 460 54 60 165 95 300 96 l74 1 -6 -227z m-5099 -462 c78 -67
142 -124 142 -127 0 -2 -88 -4 -195 -4 l-195 0 -7 28 c-4 15 -8 52 -7 82 1 91
65 189 103 157 9 -8 80 -69 159 -136z m-1728 -1087 l0 -327 -77 5 c-84 5 -127
22 -168 66 -43 46 -55 108 -55 284 l0 159 107 69 c90 59 114 70 150 70 l43 0
0 -326z m-650 29 c183 -161 190 -168 190 -204 0 -80 -43 -132 -127 -150 l-52
-12 -123 109 c-68 60 -153 135 -190 168 -66 59 -68 61 -68 109 0 65 22 104 73
128 85 38 88 36 297 -148z m201 140 c15 -39 5 -101 -22 -129 -12 -13 -25 -24
-29 -24 -9 0 -194 160 -198 171 -2 5 51 9 117 9 l121 0 11 -27z m759 -63 l0
-90 -125 0 -125 0 0 83 c0 46 3 87 7 90 3 4 60 7 125 7 l118 0 0 -90z m448
-174 l2 -259 -69 5 c-170 12 -261 148 -217 325 31 127 123 197 251 190 l30 -2
3 -259z m236 235 c89 -39 144 -147 133 -263 -13 -141 -104 -226 -244 -228
l-53 0 0 253 c0 140 3 257 8 261 11 12 111 -2 156 -23z m564 -233 l2 -258
-145 0 -145 0 0 253 c0 140 3 257 7 261 4 3 68 5 142 4 l136 -3 3 -257z m327
127 l0 -130 -130 0 -130 0 0 81 c1 59 5 88 18 107 35 53 96 77 192 74 l50 -2
0 -130z m423 -127 l2 -258 -52 0 c-174 2 -276 141 -238 323 25 122 129 200
255 194 l30 -2 3 -257z m233 235 c77 -30 119 -105 119 -210 l0 -53 -145 0
-145 0 0 138 c0 76 3 142 8 146 10 11 118 -3 163 -21z m-2193 -333 c-8 -108
-65 -152 -205 -158 l-83 -4 0 104 c0 58 3 108 7 111 3 4 69 7 146 7 l139 0 -4
-60z m-1231 -72 l95 -83 -122 -3 c-68 -1 -125 0 -129 4 -3 3 -6 29 -5 57 0 55
25 107 51 107 8 0 57 -37 110 -82z m3511 25 c5 -34 -24 -79 -62 -97 -23 -11
-61 -16 -115 -16 l-81 0 0 64 c0 76 -10 71 144 70 105 0 111 -1 114 -21z"/>
<path d="M3545 5015 l-260 -144 -3 -55 c-2 -31 -5 -56 -7 -56 -3 0 -18 8 -35
19 l-31 18 -267 -147 -267 -148 -3 -57 c-3 -49 -5 -56 -20 -50 -68 29 -52 35
-334 -121 l-268 -148 0 -295 0 -296 51 -29 52 -29 -24 -18 c-13 -10 -36 -24
-51 -30 l-28 -11 0 -297 0 -296 51 -29 52 -29 -24 -18 c-13 -10 -36 -24 -51
-30 l-28 -11 0 -298 0 -298 267 -147 c284 -156 266 -149 335 -120 15 6 17 -1
20 -51 l3 -58 267 -148 268 -148 32 20 33 20 5 -56 5 -57 269 -148 270 -148
80 44 c45 25 165 91 268 148 l188 102 0 58 c0 31 3 57 6 57 4 0 21 -9 39 -20
l32 -20 269 149 269 149 3 56 c3 60 7 64 38 41 10 -8 26 -15 35 -15 9 0 99 46
200 102 101 55 218 120 259 142 l75 42 3 300 2 301 -51 28 c-55 30 -55 29 14
66 l37 19 0 299 0 298 -51 28 c-55 30 -55 29 14 66 l37 20 -2 300 -3 301 -264
145 -265 145 -33 -16 c-19 -9 -36 -16 -38 -16 -3 0 -5 24 -5 53 l0 53 -267
148 c-284 157 -266 150 -335 121 -15 -6 -17 1 -20 51 l-3 58 -260 143 c-143
78 -267 143 -275 142 -8 0 -132 -65 -275 -144z m314 -1015 l41 20 0 -57 0 -58
268 -148 267 -148 33 15 c18 9 35 16 37 16 3 0 5 -24 5 -52 l0 -53 51 -29 52
-29 -24 -18 c-13 -10 -36 -24 -51 -30 l-28 -11 0 -297 0 -296 56 -31 55 -31
-55 -29 -56 -29 0 -57 0 -57 -35 20 -35 21 -270 -148 -270 -149 0 -57 c0 -32
-2 -58 -4 -58 -3 0 -20 9 -39 20 l-35 21 -34 -21 -33 -20 -5 57 -5 57 -268
148 -268 148 -39 -20 -40 -20 0 58 0 59 -51 28 -51 28 51 29 51 30 0 297 0
298 -51 28 c-55 30 -55 29 14 66 36 19 37 21 37 74 0 30 4 55 9 55 5 0 23 -8
39 -17 l29 -17 271 150 271 149 1 58 0 59 34 -22 35 -21 40 21z"/>
</g>
<defs>
<filter id="filter0_d" x="0.758789" y="9.5" width="229.171" height="36.7402" filterUnits="userSpaceOnUse" color-interpolation-filters="sRGB">
<feFlood flood-opacity="0" result="BackgroundImageFix"/>
<feColorMatrix in="SourceAlpha" type="matrix" values="0 0 0 0 0 0 0 0 0 0 0 0 0 0 0 0 0 0 127 0"/>
<feOffset dy="4"/>
<feGaussianBlur stdDeviation="2"/>
<feColorMatrix type="matrix" values="0 0 0 0 0 0 0 0 0 0 0 0 0 0 0 0 0 0 0.25 0"/>
<feBlend mode="normal" in2="BackgroundImageFix" result="effect1_dropShadow"/>
<feBlend mode="normal" in="SourceGraphic" in2="effect1_dropShadow" result="shape"/>
</filter>
</defs>
</svg>
